<svg id="Calque_1" data-name="Calque 1" xmlns="http://www.w3.org/2000/svg" viewBox="0 0 95.94 95.94"><defs><style>.cls-1{fill:#010101;stroke:#1d1d1b;stroke-miterlimit:10;stroke-width:5.3px;}.cls-2{fill:#e6332a;}</style></defs><title>logo_HSCANME-ICO</title><path class="cls-1" d="M7.4,80.59a2.79,2.79,0,0,0,2.65-2.91V10.42H23.51a2.79,2.79,0,0,0,2.65-2.91,2.8,2.8,0,0,0-2.65-2.92H7.4A2.8,2.8,0,0,0,4.74,7.51V77.68A2.79,2.79,0,0,0,7.4,80.59Z" transform="translate(-2.09 -1.94)"/><path class="cls-1" d="M92.73,4.59H76.8a2.8,2.8,0,0,0-2.66,2.92,2.79,2.79,0,0,0,2.66,2.91H90.07V77.68a2.67,2.67,0,1,0,5.31,0V7.51A2.79,2.79,0,0,0,92.73,4.59Z" transform="translate(-2.09 -1.94)"/><path class="cls-1" d="M7.4,95.24H23.51a2.66,2.66,0,0,0,0-5.32H10.05V76.47a2.66,2.66,0,1,0-5.31,0V92.58A2.66,2.66,0,0,0,7.4,95.24Z" transform="translate(-2.09 -1.94)"/><path class="cls-1" d="M92.73,73.81a2.66,2.66,0,0,0-2.66,2.66V89.92H76.8a2.66,2.66,0,0,0,0,5.32H92.73a2.65,2.65,0,0,0,2.65-2.66V76.47A2.65,2.65,0,0,0,92.73,73.81Z" transform="translate(-2.09 -1.94)"/><path class="cls-2" d="M64.8,59.42H35.32a9.51,9.51,0,0,1,0-19H64.8a9.51,9.51,0,1,1,0,19Z" transform="translate(-2.09 -1.94)"/></svg>